<?xml version="1.0" standalone="no"?>
<!DOCTYPE svg PUBLIC "-//W3C//DTD SVG 20010904//EN"
 "http://www.w3.org/TR/2001/REC-SVG-20010904/DTD/svg10.dtd">
<svg version="1.0" xmlns="http://www.w3.org/2000/svg"
 width="512.000000pt" height="512.000000pt" viewBox="0 0 512.000000 512.000000"
 preserveAspectRatio="xMidYMid meet">
<metadata>
Created by potrace 1.11, written by Peter Selinger 2001-2013
</metadata>
<g transform="translate(0.000000,512.000000) scale(0.100000,-0.100000)"
fill="#000000" stroke="none">
<path d="M3669 5109 c-558 -82 -997 -510 -1093 -1064 -20 -116 -14 -345 12
-465 79 -364 298 -667 617 -849 l90 -51 6 -158 c6 -170 10 -186 69 -248 55
-59 81 -67 233 -72 l137 -4 0 -68 0 -68 -46 -11 c-95 -24 -176 -81 -219 -155
-20 -35 -54 -141 -99 -317 -7 -25 -11 -74 -10 -110 l3 -65 -52 -23 c-37 -17
-88 -59 -175 -145 -131 -129 -165 -176 -183 -253 l-11 -48 -77 0 c-84 0 -118
-14 -291 -116 -113 -67 -143 -91 -180 -143 l-32 -44 -31 16 c-17 8 -94 32
-171 53 -110 29 -158 37 -220 36 l-79 -1 -28 105 c-15 57 -25 107 -21 111 4 3
52 18 107 33 110 29 160 57 198 107 57 77 59 136 13 310 l-33 126 73 72 c40
39 94 99 120 133 54 72 144 222 144 240 0 7 4 17 9 23 27 28 101 295 101 363
0 68 -55 117 -118 105 -51 -10 -69 -40 -92 -152 -51 -245 -142 -408 -331 -593
-134 -131 -132 -125 -100 -244 11 -38 29 -105 40 -147 22 -83 26 -114 13 -122
-8 -5 -181 -53 -454 -125 -124 -33 -162 -40 -178 -31 -11 6 -20 17 -20 25 0
24 -71 278 -87 312 -16 35 -39 45 -141 63 -386 68 -727 375 -837 755 -31 109
-37 151 -40 286 -12 463 292 894 736 1043 112 38 186 20 228 -54 26 -47 27
-82 1 -136 -25 -51 -44 -64 -135 -94 -206 -68 -365 -211 -460 -413 -50 -105
-68 -186 -69 -307 -1 -136 8 -194 44 -288 81 -210 226 -361 430 -449 41 -17
86 -34 100 -37 14 -3 48 -9 75 -15 77 -16 248 -6 335 19 171 49 333 163 430
305 158 230 182 535 61 785 -97 201 -277 350 -493 410 -40 11 -83 20 -96 20
-22 0 -23 3 -15 33 15 60 8 178 -14 228 l-21 46 27 -2 c127 -11 287 -58 407
-118 104 -52 219 -142 314 -246 75 -81 90 -93 126 -98 36 -5 44 -1 72 27 65
64 40 122 -119 279 -181 178 -432 303 -699 348 -59 10 -310 10 -376 1 -123
-18 -264 -64 -388 -125 -366 -183 -628 -545 -693 -958 -12 -79 -9 -333 6 -410
96 -503 484 -910 972 -1021 68 -15 69 -16 79 -57 29 -111 63 -223 75 -246 17
-34 61 -74 103 -95 62 -32 117 -31 246 4 65 17 119 30 121 28 2 -2 19 -66 40
-142 l36 -139 -32 -70 c-40 -87 -43 -180 -9 -270 25 -65 94 -144 157 -175 53
-27 302 -93 375 -99 58 -5 136 14 188 45 39 24 100 84 116 114 l14 27 47 -21
c59 -26 158 -31 224 -12 49 15 263 133 327 181 46 34 100 119 114 180 l12 51
40 -2 c61 -4 136 13 188 41 25 14 100 80 167 147 149 151 175 199 175 322 l0
81 45 21 c61 28 125 84 156 135 27 47 106 330 110 392 5 99 -43 208 -120 272
l-45 37 0 92 0 92 138 4 c150 4 173 11 231 70 61 61 65 78 69 250 l4 157 81
45 c274 154 482 402 586 699 33 94 36 107 56 232 14 92 16 277 3 362 -83 547
-486 970 -1028 1080 -86 17 -328 25 -411 12z m211 -200 c61 -20 110 -79 110
-134 0 -30 -23 -90 -43 -109 -28 -29 -75 -44 -152 -49 -99 -7 -160 -20 -245
-54 -306 -121 -507 -436 -487 -763 18 -290 181 -537 437 -661 120 -58 203 -75
365 -73 105 2 132 6 211 32 118 39 220 101 303 182 79 77 120 134 166 233 55
116 70 185 69 327 0 141 -20 233 -75 343 -33 66 -121 188 -161 222 -55 48
-137 105 -188 130 -30 15 -56 28 -58 30 -1 1 10 29 25 61 24 50 28 72 28 147
l0 88 24 -6 c39 -10 176 -81 244 -126 128 -87 287 -270 354 -409 51 -105 89
-228 101 -320 8 -66 8 -267 0 -325 -33 -219 -139 -427 -302 -591 -102 -102
-175 -154 -305 -219 -49 -25 -97 -55 -105 -67 -13 -18 -16 -55 -16 -198 0
-124 -4 -180 -12 -188 -17 -17 -639 -17 -656 0 -8 8 -12 63 -12 182 0 117 -4
179 -13 196 -8 16 -46 43 -109 75 -328 169 -529 433 -603 790 -11 50 -14 277
-5 330 17 103 22 122 46 193 110 328 381 592 711 692 143 43 289 59 353 39z
m139 -518 c223 -73 379 -275 397 -513 27 -377 -321 -682 -691 -605 -368 77
-571 485 -406 816 38 77 50 94 108 154 82 85 187 142 305 167 66 14 214 4 287
-19z m-2609 -1317 c263 -61 447 -292 448 -561 1 -263 -175 -492 -433 -564 -80
-22 -246 -17 -325 11 -239 85 -383 277 -395 525 -16 333 248 607 580 603 39
-1 95 -7 125 -14z m2416 -1230 c42 -20 77 -75 77 -123 0 -49 -61 -268 -86
-310 -48 -79 -170 -81 -226 -2 -38 52 -35 81 34 326 29 103 115 150 201 109z
m-287 -660 c55 -46 70 -100 46 -162 -19 -47 -198 -226 -246 -246 -104 -42
-206 47 -184 161 5 27 29 59 103 136 53 55 111 108 127 118 46 29 116 25 154
-7z m-589 -463 c44 -23 70 -66 72 -118 2 -68 -27 -101 -154 -174 -168 -96
-187 -101 -254 -69 -48 24 -74 67 -74 125 0 63 26 91 152 166 65 38 128 74
140 79 37 14 81 11 118 -9z m-805 -221 c131 -37 166 -60 183 -121 14 -53 3
-97 -34 -134 -51 -51 -88 -53 -244 -10 -156 42 -184 56 -209 107 -31 63 -8
141 52 179 42 26 96 22 252 -21z"/>
<path d="M3783 2780 c-44 -36 -54 -83 -26 -130 17 -30 51 -50 84 -50 48 0 99
51 99 100 0 76 -99 127 -157 80z"/>
<path d="M2380 2902 c-48 -24 -67 -60 -55 -108 26 -99 164 -101 188 -3 21 82
-59 149 -133 111z"/>
<path d="M1533 1500 c-46 -19 -70 -86 -47 -132 33 -64 106 -78 155 -29 16 16
29 35 30 43 0 7 2 20 4 30 5 24 -31 77 -61 88 -30 12 -51 12 -81 0z"/>
</g>
</svg>
